<?xml version="1.0" standalone="no"?>
<!DOCTYPE svg PUBLIC "-//W3C//DTD SVG 1.1//EN" "http://www.w3.org/Graphics/SVG/1.1/DTD/svg11.dtd" >
<svg xmlns="http://www.w3.org/2000/svg">
<metadata></metadata>
<defs>
<font id="unda_angleitalic" horiz-adv-x="851" >
<font-face units-per-em="2048" ascent="1638" descent="-410" />
<missing-glyph horiz-adv-x="450" />
<glyph horiz-adv-x="0" />
<glyph horiz-adv-x="682" />
<glyph unicode=" "  horiz-adv-x="450" />
<glyph unicode="&#x09;" horiz-adv-x="450" />
<glyph unicode="&#xa0;" horiz-adv-x="450" />
<glyph unicode="!" horiz-adv-x="352" d="M-70 0l50 229h229l-49 -229h-230zM2 332l191 897h229l-191 -897h-229z" />
<glyph unicode="&#x22;" horiz-adv-x="849" d="M37 999l14 64l203 166h227l-14 -64l-201 -166h-229zM369 999l14 64l203 166h227l-14 -64l-201 -166h-229z" />
<glyph unicode="#" d="M18 416l31 145h166l25 107h-166l28 143h168l37 168h146l-37 -168h102l37 168h147l-36 -168h165l-28 -143h-168l-25 -107h168l-30 -145h-168l-35 -166h-146l35 166h-102l-35 -166h-147l34 166h-166zM362 561h103l24 107h-102z" />
<glyph unicode="$" d="M-35 166l49 229h230l-35 -166h270l58 269h-332l-133 170l84 395l204 166h82l35 168h230l-35 -168h84l129 -166l-47 -229h-230l35 165h-270l-58 -270h332l131 -168l-84 -397l-200 -164h-84l-35 -166h-230l35 166h-82z" />
<glyph unicode="%" horiz-adv-x="940" d="M-25 0l31 145l815 1084h146l-31 -146l-813 -1083h-148zM125 915l51 230l103 84l231 2l65 -84l-51 -232l-102 -84h-232zM287 979h102l23 106h-103zM367 86l49 229l102 84h232l65 -84l-49 -229l-104 -84h-230zM526 150h103l22 106h-102z" />
<glyph unicode="&#x26;" horiz-adv-x="1269" d="M-35 166l68 315l198 164l7 25l-64 82l68 311l198 166h400l131 -166l-68 -311l-201 -166l-6 -25l66 -82h106l99 82l37 168h229l-49 -229l-305 -252l-5 -19h252l-49 -229h-313l-66 84h-18l-102 -84h-484zM207 229h356l23 109l-127 160l-195 2zM397 729h273l57 270h-272z " />
<glyph unicode="'" horiz-adv-x="518" d="M37 999l14 64l203 166h227l-14 -64l-201 -166h-229z" />
<glyph unicode="(" horiz-adv-x="602" d="M-35 166l191 897l206 168l310 -2l-49 -232h-250l-164 -768h250l-49 -229h-312z" />
<glyph unicode=")" horiz-adv-x="602" d="M-70 0l50 229h249l164 768h-250l50 232h311l133 -166l-193 -897l-200 -164z" />
<glyph unicode="*" horiz-adv-x="935" d="M45 582l33 147l166 -2l22 107h-86l31 145h147l-34 -166h104l53 250h146l-54 -250h105l35 166h145l-31 -145h-84l-20 -105h168l-33 -147h-168l-20 -103h84l-33 -147h-146l37 168h-104l-53 -250h-146l53 250h-104l-37 -168h-147l32 147h87l20 103h-168z" />
<glyph unicode="+" horiz-adv-x="768" d="M45 500l31 145h250l55 252h145l-55 -252h250l-31 -145h-250l-53 -250h-145l53 250h-250z" />
<glyph unicode="," horiz-adv-x="352" d="M55 0l49 229h230l-68 -311l-102 -86l-62 2l35 166h-82z" />
<glyph unicode="-" horiz-adv-x="602" d="M45 498l33 147h479l-33 -147h-479z" />
<glyph unicode="." horiz-adv-x="352" d="M37 0l49 229h229l-49 -229h-229z" />
<glyph unicode="/" d="M-70 0l31 145l815 1084h146l-31 -146l-813 -1083h-148z" />
<glyph unicode="0" d="M-35 166l193 897l200 166h398l131 -166l-193 -897l-200 -166h-398zM209 229h272l58 271l-308 -166zM297 645l307 166l41 188h-272z" />
<glyph unicode="1" horiz-adv-x="520" d="M96 0l213 999h-166l50 230h397l-262 -1229h-232z" />
<glyph unicode="2" d="M-70 0l82 385l590 416l43 198h-502l50 230h563l131 -166l-70 -326l-584 -397l-24 -111h500l-50 -229h-729z" />
<glyph unicode="3" horiz-adv-x="854" d="M-70 0l50 229h503l58 271h-420l49 229h420l57 272l-502 -2l50 230h563l131 -164l-68 -313l-194 -140l137 -133l-68 -313l-200 -166h-566z" />
<glyph unicode="4" d="M18 416l175 813h229l-160 -748h273l159 748h228l-263 -1229h-227l53 250h-335z" />
<glyph unicode="5" d="M-70 0l50 229h501l58 271h-502l156 729h729l-50 -230h-499l-58 -270h334l129 -168l-84 -395l-200 -166h-564z" />
<glyph unicode="6" d="M-35 164l191 895l204 170h396l129 -168l-47 -230h-230l35 166h-270l-58 -268l334 -2l129 -166l-84 -397l-200 -164h-396zM209 229h270l58 269h-271z" />
<glyph unicode="7" d="M-70 0l84 395l588 416l41 188h-500l50 230h729l-103 -479l-588 -416l-71 -334h-230z" />
<glyph unicode="8" d="M-33 168l66 311l194 133l-137 140l68 311l202 166h396l131 -166l-68 -311l-192 -140l135 -133l-66 -311l-202 -168h-396zM209 229h272l58 271h-273zM315 729h273l57 270h-272z" />
<glyph unicode="9" d="M-35 166l51 229h228l-35 -164h270l58 269h-334l-129 166l86 397l200 166h394l133 -166l-191 -893l-204 -170h-396zM315 729h271l57 270h-270z" />
<glyph unicode=":" horiz-adv-x="352" d="M-31 2l49 231h228l-49 -231h-228zM106 666l50 231h227l-49 -231h-228z" />
<glyph unicode=";" horiz-adv-x="352" d="M-16 0l49 229h229l-49 -229l-119 -166h-63l35 166h-82zM125 666l49 231h227l-49 -231h-227z" />
<glyph unicode="&#x3c;" d="M61 446l512 451h314l-514 -448l321 -449h-313z" />
<glyph unicode="=" d="M18 334l31 145h729l-30 -145h-730zM74 586l30 145h730l-31 -145h-729z" />
<glyph unicode="&#x3e;" d="M-35 0l514 449l-321 448h313l320 -451l-512 -446h-314z" />
<glyph unicode="?" d="M-70 2l50 227h227l-49 -227h-228zM2 334l49 229l201 166h334l57 268h-500l50 232h563l129 -168l-84 -393l-201 -170h-336l-35 -164h-227z" />
<glyph unicode="@" horiz-adv-x="1101" d="M-16 82l155 731l99 82h815l65 -82l-102 -479l-103 -84h-561l-65 82l49 229l102 84h398l-54 -250h103l76 357h-689l-129 -607h752l-31 -145h-815zM449 395h186l20 105h-186z" />
<glyph unicode="A" d="M-70 0l226 1061l202 168h398l129 -168l-226 -1061h-229l90 418h-272l-90 -418h-228zM295 645h272l76 354h-272z" />
<glyph unicode="B" d="M-70 0l263 1229h563l129 -168l-66 -309l-194 -140l137 -133l-66 -311l-204 -168h-562zM207 227h272l58 275h-273zM313 729h273l57 270h-272z" />
<glyph unicode="C" d="M-35 166l191 895l202 168h398l129 -168l-47 -227h-230l35 165h-272l-164 -770h272l35 166h229l-49 -229l-200 -166h-398z" />
<glyph unicode="D" d="M-70 0l263 1229h563l129 -168l-191 -895l-200 -166h-564zM207 227h272l164 772h-272z" />
<glyph unicode="E" d="M-70 0l263 1229h729l-50 -230l-501 2l-58 -272h418l-49 -229h-418l-57 -271h502l-50 -229h-729z" />
<glyph unicode="F" d="M-70 0l263 1229h729l-50 -230l-501 2l-58 -272h418l-49 -229h-418l-106 -500h-228z" />
<glyph unicode="G" d="M-35 166l191 895l202 168h398l129 -168l-47 -227h-230l35 165h-272l-164 -770h272l58 271h-168l49 229h397l-121 -563l-200 -166h-398z" />
<glyph unicode="H" d="M-70 0l263 1229h227l-107 -500h273l106 500h230l-263 -1229h-229l107 500h-273l-106 -500h-228z" />
<glyph unicode="I" horiz-adv-x="352" d="M-70 0l263 1229h229l-262 -1229h-230z" />
<glyph unicode="J" horiz-adv-x="602" d="M-70 0l50 229h249l213 1000h230l-228 -1065l-202 -164h-312z" />
<glyph unicode="K" d="M-70 0l263 1229h227l-107 -500h273l106 500h230l-103 -477l-192 -140l135 -133l-103 -479h-229l107 500h-273l-106 -500h-228z" />
<glyph unicode="L" horiz-adv-x="602" d="M-70 0l263 1229h227l-213 -1000h252l-49 -229h-480z" />
<glyph unicode="M" horiz-adv-x="1183" d="M-70 0l263 1229h897l129 -162l-228 -1067h-227l213 999h-189l-213 -999h-229l213 999h-186l-213 -999h-230z" />
<glyph unicode="N" d="M-70 0l263 1229h229l-53 -250l198 -334l125 584h230l-263 -1229h-229l53 250l-198 334l-125 -584h-230z" />
<glyph unicode="O" d="M-35 166l191 895l202 168h398l129 -168l-191 -895l-200 -166h-398zM207 229h272l164 770h-272z" />
<glyph unicode="P" horiz-adv-x="854" d="M-70 0l263 1229h563l131 -168l-82 -391l-205 -170h-334l-106 -500h-230zM315 729h271l57 270h-270z" />
<glyph unicode="Q" horiz-adv-x="1017" d="M-35 166l191 895l202 168h398l129 -168l-176 -832h165l-49 -229h-729zM207 229h272l164 770h-272z" />
<glyph unicode="R" d="M-70 0l263 1229h563l129 -168l-66 -309l-192 -140l135 -133l-103 -479h-229l107 502h-273l-106 -502h-228zM313 729h273l57 270h-272z" />
<glyph unicode="S" d="M-35 166l49 229h230l-35 -166h270l58 273h-334l-129 166l82 393l202 168h398l129 -168l-47 -227h-230l35 165h-270l-58 -270h334l131 -166l-84 -395l-202 -168h-398z" />
<glyph unicode="T" d="M143 999l50 230h729l-50 -230h-249l-213 -999h-230l213 999h-250z" />
<glyph unicode="U" d="M-35 166l228 1063h227l-213 -1000h272l213 1000h230l-228 -1063l-200 -166h-398z" />
<glyph unicode="V" d="M25 436l168 793h229l-152 -711l101 -164l170 164l151 711h230l-168 -793l-457 -438z" />
<glyph unicode="W" horiz-adv-x="1183" d="M-35 166l228 1063h229l-213 -1000h186l213 1000h230l-213 -1000h188l213 1000h227l-225 -1061l-201 -168h-731z" />
<glyph unicode="X" d="M-70 0l103 481l192 131l-135 140l103 477h229l-107 -500h271l106 500h230l-103 -477l-192 -140l135 -133l-103 -479h-229l107 500h-271l-106 -500h-230z" />
<glyph unicode="Y" d="M90 750l103 479h229l-107 -500h271l106 500h230l-103 -481l-303 -246l-106 -502h-230l107 502z" />
<glyph unicode="Z" d="M-70 0l88 410l588 417l37 172h-500l50 230h729l-99 -465l-590 -416l-24 -119h500l-50 -229h-729z" />
<glyph unicode="[" horiz-adv-x="600" d="M-70 0l263 1227h477l-49 -230h-248l-164 -770h248l-49 -227h-478z" />
<glyph unicode="\" d="M162 1083l31 146h145l352 -1084l-31 -145h-147z" />
<glyph unicode="]" horiz-adv-x="600" d="M-70 0l50 227h247l164 770h-248l50 230h477l-262 -1227h-478z" />
<glyph unicode="^" horiz-adv-x="518" d="M37 999l12 62l203 168h63l129 -168l-12 -62h-145l18 84h-104l-19 -84h-145z" />
<glyph unicode="_" d="M45 -145l33 145h729l-33 -145h-729z" />
<glyph unicode="`" horiz-adv-x="622" d="M100 1366h230l192 -367h-229z" />
<glyph unicode="a" horiz-adv-x="854" d="M2 168l49 229l203 168h334l22 103h-501l49 229h563l131 -166l-156 -731h-563zM244 231h272l23 105h-273z" />
<glyph unicode="b" d="M-70 0l263 1229h229l-72 -332h334l131 -168l-121 -563l-200 -166h-564zM209 227h268l94 441h-268z" />
<glyph unicode="c" d="M2 166l119 563l203 168h397l129 -166l-31 -145h-229l18 82h-270l-94 -439h270l18 82h230l-31 -145l-203 -166h-397z" />
<glyph unicode="d" d="M-35 166l121 563l201 168h334l71 332h230l-263 -1229h-563zM211 227h268l94 441h-268z" />
<glyph unicode="e" d="M2 166l119 563l203 168h397l129 -168l-49 -229l-201 -168h-334l-22 -103h499l-49 -229h-563zM313 563h273l22 105h-272z" />
<glyph unicode="f" horiz-adv-x="860" d="M72 666l49 231h174l35 164l202 168h398l-49 -230h-336l-23 -102h252l-49 -231h-252l-141 -666h-228l142 666h-174z" />
<glyph unicode="g" horiz-adv-x="849" d="M-70 -334l50 228h497l23 106h-334l-129 168l119 561l200 168h564l-226 -1063l-205 -168h-559zM276 227h271l94 439h-270z" />
<glyph unicode="h" d="M-70 0l263 1229h229l-72 -332h334l131 -168l-156 -729h-231l143 668h-268l-143 -668h-230z" />
<glyph unicode="i" horiz-adv-x="350" d="M-70 0l191 897h227l-190 -897h-228zM143 999l50 230h227l-49 -230h-228z" />
<glyph unicode="j" horiz-adv-x="602" d="M-104 -334l49 232q125 1 187.5 1t62.5 -1l213 999h229l-227 -1063l-203 -168h-311zM428 999l49 230h230l-50 -230h-229z" />
<glyph unicode="k" d="M-70 0l263 1229h229l-125 -584h270l54 252h229l-47 -229l-195 -140l135 -135l-84 -393h-229l90 418h-270l-90 -418h-230z" />
<glyph unicode="l" horiz-adv-x="352" d="M-70 -2l263 1231h229l-262 -1231h-230z" />
<glyph unicode="m" horiz-adv-x="1185" d="M-35 0l193 897h897l129 -166l-158 -731h-227l143 668h-188l-144 -668h-229l143 668h-186l-143 -668h-230z" />
<glyph unicode="n" horiz-adv-x="849" d="M-33 0l189 895h561l131 -166l-154 -729h-229l141 666h-268l-141 -666h-230z" />
<glyph unicode="o" d="M2 166l119 563l203 168h397l129 -166l-119 -565l-203 -166h-397zM244 229h270l94 439h-270z" />
<glyph unicode="p" d="M-70 -332l263 1229h563l131 -166l-121 -563l-201 -168h-334l-71 -332h-230zM279 229h268l94 441h-268z" />
<glyph unicode="q" d="M37 168l121 563l200 166h564l-263 -1229h-229l72 332h-334zM281 229h268l94 441h-268z" />
<glyph unicode="r" horiz-adv-x="768" d="M-33 0l189 895h229l-35 -168l221 168h230l-47 -229h-250l-203 -166l-104 -500h-230z" />
<glyph unicode="s" horiz-adv-x="849" d="M-33 0l47 229h498l23 105l-334 -2l-129 166l49 229l198 168h564l-47 -229h-498l-23 -105h334l127 -168l-47 -229l-201 -164h-561z" />
<glyph unicode="t" d="M72 666l49 231h166l71 332h230l-72 -332h250l-49 -231h-250l-92 -437h334l-50 -229h-395l-131 168l105 498h-166z" />
<glyph unicode="u" d="M2 166l156 731h229l-143 -668h270l143 668h230l-156 -731l-203 -166h-397z" />
<glyph unicode="v" d="M59 436l99 461h229l-82 -379l101 -164l169 164l82 379h230l-99 -463l-456 -436z" />
<glyph unicode="w" horiz-adv-x="1183" d="M2 166l156 731h229l-143 -668h186l143 668h230l-144 -668h189l143 668h228l-156 -729l-201 -168h-731z" />
<glyph unicode="x" d="M-33 0l66 311l190 135l-133 140l66 309h229l-70 -334h271l69 334h230l-66 -309l-192 -140l135 -135l-66 -311h-229l70 332h-271l-69 -332h-230z" />
<glyph unicode="y" horiz-adv-x="849" d="M-70 -334l50 228h497l23 106h-334l-129 166l156 729h229l-143 -668h268l143 668h230l-226 -1061l-202 -168h-562z" />
<glyph unicode="z" horiz-adv-x="854" d="M-33 0l66 311l413 355h-337l47 229h731l-47 -229l-510 -437h415l-47 -229h-731z" />
<glyph unicode="{" horiz-adv-x="686" d="M49 166l90 418l-78 30l91 33l88 414l202 168h314l-49 -230h-252l-76 -352l-88 -33l76 -30l-76 -355h252l-49 -229h-314z" />
<glyph unicode="|" horiz-adv-x="268" d="M-70 0l263 1229h145l-262 -1229h-146z" />
<glyph unicode="}" horiz-adv-x="686" d="M-70 0l50 229h251l76 355l88 30l-76 33l76 352h-252l50 230h313l129 -168l-88 -414l78 -33l-90 -30l-91 -418l-200 -166h-314z" />
<glyph unicode="~" horiz-adv-x="681" d="M176 1112l31 145h145l-18 -83h102l19 83h227l66 -83l-31 -146h-146l19 84h-103l-18 -84h-227z" />
<glyph unicode="&#xa1;" horiz-adv-x="352" d="M-70 0l191 897h229l-190 -897h-230zM143 999l50 230h229l-49 -230h-230z" />
<glyph unicode="&#xa2;" d="M2 166l119 563l203 168h84l34 164h230l-37 -164h86l129 -166l-31 -145h-229l18 82h-270l-94 -439h270l18 82h230l-31 -145l-201 -166h-84l-36 -166h-230l39 166h-86z" />
<glyph unicode="&#xa3;" horiz-adv-x="854" d="M-70 0l230 1063l200 166h398l131 -166l-33 -145h-229l18 81h-270l-58 -270h334l-49 -229h-334l-57 -271h500l-49 -229h-732z" />
<glyph unicode="&#xa5;" d="M-37 154l33 149h250l20 100h-250l33 150h197l-156 197l103 479h229l-107 -500h271l106 500h230l-103 -481l-239 -195h198l-33 -150h-249l-21 -100h250l-33 -149h-250l-32 -154h-230l33 154h-250z" />
<glyph unicode="&#xa6;" horiz-adv-x="77" />
<glyph unicode="&#xa7;" horiz-adv-x="77" />
<glyph unicode="&#xa8;" horiz-adv-x="815" d="M37 1300l49 230h229l-49 -230h-229zM500 1300l49 230h229l-49 -230h-229z" />
<glyph unicode="&#xa9;" horiz-adv-x="1081" d="M-35 166l191 895l202 168h627l131 -168l-190 -895l-201 -166h-629zM207 229h502l163 770h-501zM340 387l94 449l103 84h198l64 -84l-23 -115h-114l16 84h-135l-82 -385h135l18 84h115l-24 -117l-101 -82h-198z" />
<glyph unicode="&#xaa;" horiz-adv-x="77" />
<glyph unicode="&#xab;" horiz-adv-x="1495" d="M61 446l512 451h314l-514 -448l321 -449h-313zM705 446l512 451h313l-514 -448l321 -449h-313z" />
<glyph unicode="&#xac;" horiz-adv-x="77" />
<glyph unicode="&#xad;" horiz-adv-x="602" d="M45 498l33 147h479l-33 -147h-479z" />
<glyph unicode="&#xae;" horiz-adv-x="1081" d="M-35 166l191 895l202 168h627l131 -168l-190 -895l-201 -166h-629zM207 229h502l163 770h-501zM319 301l132 614h280l66 -84l-33 -155l-96 -70l67 -65l-51 -240h-115l54 250h-136l-53 -250h-115zM510 666h137l29 135h-137z" />
<glyph unicode="&#xb0;" horiz-adv-x="718" d="M33 1444l59 258l203 168h258l131 -166l-59 -260l-201 -166h-260zM276 1507h134l32 133h-133z" />
<glyph unicode="&#xb1;" horiz-adv-x="77" />
<glyph unicode="&#xb2;" horiz-adv-x="77" />
<glyph unicode="&#xb3;" horiz-adv-x="77" />
<glyph unicode="&#xb4;" horiz-adv-x="622" d="M23 999l348 367h229l-348 -367h-229z" />
<glyph unicode="&#xb5;" horiz-adv-x="77" />
<glyph unicode="&#xb6;" horiz-adv-x="1052" d="M74 670l82 391l204 168h762l-262 -1229h-229l106 500h-123l-106 -500h-229l106 500h-180zM317 729h117l58 270h-117zM664 729h122l58 270h-123z" />
<glyph unicode="&#xb8;" horiz-adv-x="350" d="M18 -412l86 410h228l-86 -410h-228z" />
<glyph unicode="&#xb9;" horiz-adv-x="77" />
<glyph unicode="&#xba;" horiz-adv-x="77" />
<glyph unicode="&#xbb;" horiz-adv-x="1495" d="M-35 0l514 449l-321 448h313l320 -451l-512 -446h-314zM608 0l514 449l-321 448h313l320 -451l-512 -446h-314z" />
<glyph unicode="&#xbc;" horiz-adv-x="77" />
<glyph unicode="&#xbd;" horiz-adv-x="77" />
<glyph unicode="&#xbe;" horiz-adv-x="77" />
<glyph unicode="&#xbf;" d="M-33 170l84 393l201 170h336l35 164h227l-49 -229l-201 -166h-334l-57 -269h500l-50 -231h-563zM645 1001l49 228h228l-50 -228h-227z" />
<glyph unicode="&#xc0;" d="M-115 0l226 1061l200 168h398l131 -168l-226 -1061h-229l88 418h-272l-88 -418h-228zM248 645h272l76 354h-272zM340 1667h229l193 -367h-230z" />
<glyph unicode="&#xc1;" d="M-115 0l226 1061l200 168h398l131 -168l-226 -1061h-229l88 418h-272l-88 -418h-228zM250 645h272l76 354h-272zM266 1292l348 367h230l-348 -367h-230z" />
<glyph unicode="&#xc2;" d="M-100 0l225 1061l201 168h397l131 -168l-225 -1061h-230l88 418h-272l-88 -418h-227zM264 645h273l73 354h-272zM330 1300l14 62l201 168h63l131 -168l-14 -62h-145l18 84h-104l-19 -84h-145z" />
<glyph unicode="&#xc3;" d="M-100 0l225 1061l201 168h397l131 -168l-225 -1061h-230l88 418h-272l-88 -418h-227zM264 645h273l73 354h-272zM279 1384l30 146h146l-17 -84h103l16 84h227l68 -84l-31 -146h-145l16 84h-102l-17 -84h-227z" />
<glyph unicode="&#xc4;" d="M-100 0l225 1061l201 168h397l131 -168l-225 -1061h-230l88 418h-272l-88 -418h-227zM188 1300l50 230h229l-49 -230h-230zM264 645h273l73 354h-272zM651 1300l49 230h230l-49 -230h-230z" />
<glyph unicode="&#xc5;" d="M-109 0l228 1061l104 88l-12 16l59 258l201 168h260l131 -166l-59 -260l-23 -18l68 -86l-227 -1061h-230l90 418h-272l-90 -418h-228zM256 645h272l76 354h-2h-260h-10zM455 1229h133l30 133h-131z" />
<glyph unicode="&#xc6;" horiz-adv-x="1353" d="M-70 0l226 1061l202 168h336h62h667l-49 -230l-502 2l-57 -272h418l-49 -229h-418l-57 -271h501l-49 -229h-502h-227h-2l90 418h-272l-90 -418h-228zM295 645h272l76 354h-272z" />
<glyph unicode="&#xc7;" d="M8 166l191 895l202 168h398l129 -168l-47 -227h-230l35 165h-272l-164 -770h272l35 166h229l-49 -229l-200 -166h-88l-87 -403h-227l86 403h-82z" />
<glyph unicode="&#xc8;" d="M-115 0l260 1229h729l-49 -230l-501 2l-58 -272h418l-49 -229h-418l-57 -271h502l-48 -229h-729zM340 1667h229l193 -367h-230z" />
<glyph unicode="&#xc9;" d="M-117 0l262 1229h729l-49 -230l-501 2l-58 -272h418l-49 -229h-418l-57 -271h502l-50 -229h-729zM266 1300l348 367h230l-348 -367h-230z" />
<glyph unicode="&#xca;" d="M-100 0l260 1229h729l-49 -230l-500 2l-59 -272h417l-49 -229h-418l-57 -271h502l-47 -229h-729zM330 1300l14 62l201 168h63l131 -168l-14 -62h-145l18 84h-104l-19 -84h-145z" />
<glyph unicode="&#xcb;" d="M-100 0l260 1229h729l-49 -230l-500 2l-59 -272h417l-47 -229h-418l-57 -271h502l-49 -229h-729zM188 1298l50 230h229l-49 -230h-230zM653 1298l47 230h230l-47 -230h-230z" />
<glyph unicode="&#xcc;" horiz-adv-x="352" d="M-115 0l260 1229h230l-260 -1229h-230zM98 1665h230l192 -367h-229z" />
<glyph unicode="&#xcd;" horiz-adv-x="352" d="M-115 0l260 1229h230l-260 -1229h-230zM47 1292l348 367h230l-349 -367h-229z" />
<glyph unicode="&#xce;" horiz-adv-x="352" d="M-100 0l260 1229h229l-260 -1229h-229zM94 1300l15 62l200 168h64l131 -168l-15 -62h-145l18 84h-104l-18 -84h-146z" />
<glyph unicode="&#xcf;" horiz-adv-x="352" d="M-100 0l260 1229h229l-260 -1229h-229zM-51 1298l47 230h229l-47 -230h-229zM412 1298l49 230h229l-49 -230h-229z" />
<glyph unicode="&#xd1;" d="M-100 0l260 1229h229l-53 -250l201 -334l122 584h230l-260 -1229h-230l54 250l-201 334l-123 -584h-229zM279 1384l30 146h146l-17 -84h103l16 84h227l68 -84l-31 -146h-145l16 84h-102l-17 -84h-227z" />
<glyph unicode="&#xd2;" d="M-80 166l191 895l200 168h398l131 -168l-191 -895l-200 -166h-398zM160 229h272l164 770h-272zM346 1665h229l193 -367h-229z" />
<glyph unicode="&#xd3;" d="M-80 166l191 895l200 168h398l131 -168l-191 -895l-200 -166h-398zM162 229h272l164 770h-272zM266 1292l348 367h230l-348 -367h-230z" />
<glyph unicode="&#xd4;" d="M-66 166l191 895l201 168h397l131 -168l-190 -895l-201 -166h-397zM174 229h272l164 770h-272zM330 1300l14 62l201 168h63l131 -168l-14 -62h-145l18 84h-104l-19 -84h-145z" />
<glyph unicode="&#xd5;" d="M-66 166l191 895l201 168h397l131 -168l-190 -895l-201 -166h-397zM174 229h272l164 770h-272zM279 1384l30 146h146l-17 -84h103l16 84h227l68 -84l-31 -146h-145l16 84h-102l-17 -84h-227z" />
<glyph unicode="&#xd6;" d="M-66 166l191 895l201 168h397l131 -168l-190 -895l-201 -166h-397zM174 229h272l164 770h-272zM195 1300l49 230h229l-49 -230h-229zM659 1300l48 230h229l-47 -230h-230z" />
<glyph unicode="&#xd7;" d="M-16 166l30 145l205 168h82l21 105h-84l-129 166l30 145h148l131 -166l-19 -84h105l18 84l201 166l145 2l-30 -147l-203 -166h-84l-21 -105h84l129 -166l-30 -147h-146l-131 168l19 82h-105l-18 -82l-203 -168h-145z" />
<glyph unicode="&#xd8;" d="M-35 166l191 895l202 168h398l129 -168l-191 -895l-200 -166h-398zM248 229h231l92 430zM281 575l317 424h-227z" />
<glyph unicode="&#xd9;" d="M-80 166l225 1063h228l-213 -1000h272l213 1000h229l-225 -1063l-200 -166h-398zM346 1665h229l193 -367h-229z" />
<glyph unicode="&#xda;" d="M-80 166l225 1063h228l-211 -1000h272l211 1000h229l-225 -1063l-200 -166h-398zM266 1292l348 367h230l-348 -367h-230z" />
<glyph unicode="&#xdb;" d="M-66 166l226 1063h227l-213 -1000h272l213 1000h230l-225 -1063l-201 -166h-397zM330 1300l14 62l201 168h63l131 -168l-14 -62h-145l18 84h-104l-19 -84h-145z" />
<glyph unicode="&#xdc;" d="M-66 166l226 1063h227l-213 -1000h272l213 1000h230l-225 -1063l-201 -166h-397zM182 1300l49 230h230l-49 -230h-230zM645 1300l49 230h230l-50 -230h-229z" />
<glyph unicode="&#xdd;" d="M57 750l103 479h229l-106 -500h270l106 500h230l-103 -481l-301 -246l-106 -502h-229l106 502zM362 1470l15 62h145l-18 -84h104l19 84h145l-14 -62l-201 -167h-63z" />
<glyph unicode="&#xdf;" d="M-70 0l226 1061l204 168h396l129 -168l-66 -309l-194 -140l137 -133l-66 -311l-204 -168h-230l49 227h168l58 275h-168l49 227h168l57 270h-272l-215 -999h-226z" />
<glyph unicode="&#xe0;" horiz-adv-x="854" d="M-45 168l49 229l203 168h334l22 103h-502l50 229h563l133 -166l-156 -731h-563zM199 231h272l23 105h-273zM305 1335h230l192 -366h-229z" />
<glyph unicode="&#xe1;" horiz-adv-x="854" d="M-45 168l49 229l203 168h334l22 103h-502l50 229h563l133 -166l-156 -731h-563zM199 231h272l23 105h-273zM231 967l349 366h229l-348 -366h-230z" />
<glyph unicode="&#xe2;" horiz-adv-x="854" d="M-31 168l49 229l203 168h334l23 103h-502l49 229h563l133 -166l-155 -731h-564zM213 231h272l23 105h-272zM295 971l14 61l201 168h63l132 -168l-15 -61h-145l18 84h-104l-19 -84h-145z" />
<glyph unicode="&#xe3;" horiz-adv-x="854" d="M-31 168l49 229l203 168h334l23 103h-502l49 229h563l133 -166l-155 -731h-564zM213 231h272l23 105h-272zM244 1055l30 145h146l-17 -84h103l16 84h228l67 -84l-33 -145h-145l18 84h-102l-18 -84h-228z" />
<glyph unicode="&#xe4;" horiz-adv-x="854" d="M-31 168l49 229l205 168h334l21 103h-502l49 229h563l133 -166l-155 -731h-564zM154 969l49 229h229l-49 -229h-229zM213 231h272l23 105h-272zM616 969l50 229h229l-49 -229h-230z" />
<glyph unicode="&#xe5;" horiz-adv-x="854" d="M-70 168l50 229l204 168h334l21 103h-502l49 229h563l133 -166l-155 -731h-564zM174 231h272l23 105h-272zM197 1137l59 258l201 168h260l131 -166l-60 -260l-202 -166h-258zM438 1200h133l33 133h-133z" />
<glyph unicode="&#xe6;" horiz-adv-x="1349" d="M2 166l119 563l203 168h397l39 -51l61 51h398l129 -168l-50 -229l-200 -168h-332l-23 -103h498l-49 -229h-563l-39 51l-62 -51h-397zM244 229h268l94 439h-268zM815 563h268l23 105h-268z" />
<glyph unicode="&#xe7;" d="M45 166l119 563l201 168h397l131 -166l-31 -145h-229l18 82h-270l-94 -439h270l18 82h230l-31 -145l-203 -166h-86l-86 -403h-227l86 403h-84z" />
<glyph unicode="&#xe8;" d="M-45 166l119 563l202 168h398l129 -168l-47 -229l-203 -168h-334l-20 -103h499l-49 -229h-563zM266 563h273l22 105h-272zM305 1335h230l192 -366h-229z" />
<glyph unicode="&#xe9;" d="M-45 166l119 563l202 168h398l129 -168l-47 -229l-203 -168h-334l-20 -103h499l-49 -229h-563zM231 967l349 366h229l-348 -366h-230zM266 563h273l22 105h-272z" />
<glyph unicode="&#xea;" d="M-31 166l119 563l203 168h397l129 -168l-47 -229l-203 -168h-334l-20 -103h500l-49 -229h-564zM281 563h272l22 105h-272zM295 971l14 61l201 168h63l132 -168l-15 -61h-145l18 84h-104l-19 -84h-145z" />
<glyph unicode="&#xeb;" d="M-31 166l121 563l201 168h397l131 -168l-49 -229l-203 -168h-334l-20 -103h500l-49 -229h-564zM154 969l49 229h229l-49 -229h-229zM281 563h272l22 105h-272zM616 969l50 229h229l-49 -229h-230z" />
<glyph unicode="&#xec;" horiz-adv-x="350" d="M-80 0l191 897h227l-191 -897h-227zM88 1335h229l193 -366h-229z" />
<glyph unicode="&#xed;" horiz-adv-x="350" d="M-80 0l191 897h227l-191 -897h-227zM20 967l349 366h229l-348 -366h-230z" />
<glyph unicode="&#xee;" horiz-adv-x="350" d="M-66 0l191 897h227l-190 -897h-228zM57 971l13 61l202 168h64l129 -168l-12 -61h-146l19 84h-105l-18 -84h-146z" />
<glyph unicode="&#xef;" horiz-adv-x="350" d="M-86 969l47 229h229l-47 -229h-229zM-66 0l191 897h227l-190 -897h-228zM377 969l47 229h229l-47 -229h-229z" />
<glyph unicode="&#xf1;" horiz-adv-x="849" d="M-66 0l191 895h561l129 -166l-153 -729h-230l141 666h-268l-141 -666h-230zM244 1055l30 145h146l-17 -84h103l16 84h228l67 -84l-33 -145h-145l18 84h-102l-18 -84h-228z" />
<glyph unicode="&#xf2;" d="M-45 166l119 563l202 168h398l131 -166l-121 -565l-201 -166h-397zM199 229h270l92 439h-270zM305 1335h230l192 -366h-229z" />
<glyph unicode="&#xf3;" d="M-45 166l119 563l202 168h398l131 -166l-121 -565l-201 -166h-397zM199 229h270l92 439h-270zM231 967l349 366h229l-348 -366h-230z" />
<glyph unicode="&#xf4;" d="M-31 166l119 563l203 168h397l131 -166l-121 -565l-200 -166h-398zM213 229h270l92 439h-270zM295 971l14 61l201 168h63l132 -168l-15 -61h-145l18 84h-104l-19 -84h-145z" />
<glyph unicode="&#xf5;" d="M-31 166l119 563l203 168h397l131 -166l-121 -565l-200 -166h-398zM211 229h270l94 439h-270zM244 1057l30 145h146l-19 -84h103l18 84h228l65 -84l-31 -145h-145l18 84h-102l-18 -84h-228z" />
<glyph unicode="&#xf6;" d="M-31 166l121 563l201 168h397l131 -166l-121 -565l-200 -166h-398zM154 969l49 229h229l-49 -229h-229zM213 229h270l92 439h-270zM616 969l50 229h229l-49 -229h-230z" />
<glyph unicode="&#xf7;" d="M45 498l31 147h729l-31 -147h-729zM242 250l32 147h230l-33 -147h-229zM348 750l33 147h229l-32 -147h-230z" />
<glyph unicode="&#xf8;" horiz-adv-x="77" />
<glyph unicode="&#xf9;" d="M-45 166l156 731h229l-141 -668h270l141 668h230l-156 -731l-201 -166h-397zM305 1335h230l192 -366h-229z" />
<glyph unicode="&#xfa;" d="M-45 166l156 731h229l-141 -668h270l141 668h230l-156 -731l-201 -166h-397zM231 967l349 366h229l-348 -366h-230z" />
<glyph unicode="&#xfb;" d="M-31 166l156 731h229l-141 -668h270l142 668h229l-156 -731l-200 -166h-398zM295 971l14 61l201 168h63l132 -168l-15 -61h-145l18 84h-104l-19 -84h-145z" />
<glyph unicode="&#xfc;" d="M-31 166l156 731h229l-141 -668h270l142 668h229l-156 -731l-200 -166h-398zM154 969l49 229h229l-49 -229h-229zM616 969l50 229h229l-49 -229h-230z" />
<glyph unicode="&#xfd;" horiz-adv-x="849" d="M-102 -334l49 228h497l23 106h-334l-129 166l156 729h229l-141 -668h268l141 668h230l-225 -1061l-203 -168h-561zM362 1137l15 61h145l-18 -84h104l19 84h145l-14 -61l-201 -168h-63z" />
<glyph unicode="&#xff;" horiz-adv-x="849" d="M-100 -334l47 228h497l23 106h-334l-129 166l156 729h229l-141 -668h268l141 668h230l-225 -1061l-201 -168h-561zM190 969l48 229h229l-47 -229h-230zM653 969l49 229h230l-49 -229h-230z" />
<glyph unicode="&#x152;" horiz-adv-x="1353" d="M-35 166l191 895l202 168h336h729l-47 -223l-502 2l-57 -273h418l-49 -229h-418l-57 -270h501l-51 -236h-661h-6h-398zM207 229h272l164 770h-272z" />
<glyph unicode="&#x153;" horiz-adv-x="1357" d="M2 168l49 229l203 168h334l22 103h-501l49 229h563l43 -55l65 55h398l129 -168l-47 -229l-203 -168h-334l-22 -103h499l-47 -229h-506h-57h-506zM244 231h272l23 105h-273zM819 563h273l22 105h-272z" />
<glyph unicode="&#x178;" d="M57 750l103 479h229l-106 -500h270l106 500h230l-103 -481l-301 -246l-106 -502h-229l106 502zM190 1300l48 230h229l-47 -230h-230zM653 1300l47 230h230l-47 -230h-230z" />
<glyph unicode="&#x2c6;" horiz-adv-x="518" d="M37 999l12 62l203 168h63l129 -168l-12 -62h-145l18 84h-104l-19 -84h-145z" />
<glyph unicode="&#x2dc;" horiz-adv-x="681" d="M55 1083l31 146h145l-18 -84h102l19 84h227l66 -84l-31 -146h-145l18 84h-102l-19 -84h-227z" />
<glyph unicode="&#x2000;" horiz-adv-x="935" />
<glyph unicode="&#x2001;" horiz-adv-x="1870" />
<glyph unicode="&#x2002;" horiz-adv-x="935" />
<glyph unicode="&#x2003;" horiz-adv-x="1870" />
<glyph unicode="&#x2004;" horiz-adv-x="623" />
<glyph unicode="&#x2005;" horiz-adv-x="467" />
<glyph unicode="&#x2006;" horiz-adv-x="311" />
<glyph unicode="&#x2007;" horiz-adv-x="311" />
<glyph unicode="&#x2008;" horiz-adv-x="233" />
<glyph unicode="&#x2009;" horiz-adv-x="374" />
<glyph unicode="&#x200a;" horiz-adv-x="103" />
<glyph unicode="&#x2010;" horiz-adv-x="602" d="M45 498l33 147h479l-33 -147h-479z" />
<glyph unicode="&#x2011;" horiz-adv-x="602" d="M45 498l33 147h479l-33 -147h-479z" />
<glyph unicode="&#x2012;" horiz-adv-x="602" d="M45 498l33 147h479l-33 -147h-479z" />
<glyph unicode="&#x2013;" horiz-adv-x="602" d="M45 498l33 147h479l-33 -147h-479z" />
<glyph unicode="&#x2014;" d="M45 498l33 149h729l-33 -149h-729z" />
<glyph unicode="&#x2018;" horiz-adv-x="352" d="M18 997l68 314l102 84h64l-37 -166h82l-47 -230z" />
<glyph unicode="&#x2019;" horiz-adv-x="352" d="M55 1001l49 230h230l-68 -311l-102 -84h-64l37 165h-82z" />
<glyph unicode="&#x201c;" horiz-adv-x="686" d="M18 997l68 314l102 84h64l-37 -166h82l-47 -230zM354 999l66 314l102 82h64l-37 -166h82l-47 -230h-230z" />
<glyph unicode="&#x201d;" horiz-adv-x="686" d="M55 997l47 230h230l-66 -312l-102 -84h-64l37 166h-82zM389 997l49 232h230l-68 -314l-100 -84h-66l37 166h-82z" />
<glyph unicode="&#x2022;" d="M2 319l119 564l203 168h397l129 -166l-119 -566l-203 -165h-397z" />
<glyph unicode="&#x2026;" horiz-adv-x="1277" d="M37 0l49 229h229l-49 -229h-229zM500 0l49 229h229l-49 -229h-229zM963 0l49 229h229l-49 -229h-229z" />
<glyph unicode="&#x202f;" horiz-adv-x="374" />
<glyph unicode="&#x205f;" horiz-adv-x="467" />
<glyph unicode="&#x2122;" horiz-adv-x="1083" d="M102 803l25 115h365l-25 -115h-125l-106 -500h-115l106 500h-125zM426 303l131 615h449l65 -82l-115 -533h-112l106 500h-94l-106 -500h-115l106 500h-94l-106 -500h-115z" />
<glyph unicode="&#x25fc;" horiz-adv-x="890" d="M0 0v891h891v-891h-891z" />
</font>
</defs>
</svg>
